:SAMPLES-PER-SECOND 24
:FULLY-SPECIFIED
:DEGREES
377
root  7.57837 39.4842 23.2044 5.4873 -67.6578 -0.236145
RightUpLeg  -7.98199 2.14163 -14.5883
RightLeg  32.6547 -8.93111 -6.34605
RightFoot  -2.73588 -0.756958 9.86194
RightToes  -2.08645e-008 3.77894e-005 6.81332e-007
Spine  -4.54768 1.31832 2.17052
Spine1  10.6421 0.979833 0.690041
HEad  -38.6997 41.0661 -22.5532
LeftShoulder1  7.54554 -13.2006 -39.0198
LeftArm  3.621 20.745 -31.7226
LeftForeArm  164.873 -69.76 -153.047
LeftHand  -0.433001 -2.57535 6.52807
RightShoulder  4.07296 6.79467 33.6619
RightArm  6.91761 -34.3917 32.5645
RightForeArm  129.937 78.6097 121.932
RightHand  -0.733357 6.77078 -7.33087
LeftUpLeg  -10.6663 -5.11021 5.69357
LeftLeg  24.2593 9.91288 5.18758
LeftFoot  -8.52299 0.374606 -13.162
LeftToes  1.24767e-006 1.47042e-008 1.32732e-009
378
root  7.02111 40.3345 23.1405 6.77124 -68.6986 -0.059906
RightUpLeg  -8.27093 0.639522 -13.8416
RightLeg  27.5425 -7.53691 -4.47472
RightFoot  -1.34304 -0.676513 7.52998
RightToes  -2.08645e-008 3.77894e-005 6.81332e-007
Spine  -7.8364 0.495518 0.21833
Spine1  11.4055 -0.316656 2.62573
HEad  -35.2941 44.3416 -20.8026
LeftShoulder1  7.3124 -12.8994 -38.456
LeftArm  1.07922 29.888 -34.0637
LeftForeArm  164.346 -67.3635 -155.942
LeftHand  -0.442535 -2.60622 6.64816
RightShoulder  4.15601 6.82362 34.3502
RightArm  8.00177 -37.4917 32.4262
RightForeArm  140.987 77.5486 130.175
RightHand  -0.604725 7.4055 -5.83505
LeftUpLeg  -8.90807 -3.03525 6.31016
LeftLeg  18.4813 8.7576 3.61017
LeftFoot  -2.72194 1.09375 -14.2226
LeftToes  1.24767e-006 1.47042e-008 1.32732e-009
379
root  6.54053 40.8866 22.9382 7.90991 -69.706 -0.329987
RightUpLeg  -7.43072 0.964591 -12.7994
RightLeg  20.2043 -5.07127 -2.27476
RightFoot  -3.74957 -0.76237 11.0717
RightToes  -2.08645e-008 3.77894e-005 6.81332e-007
Spine  -9.29015 -0.0735821 -0.0253144
Spine1  11.2694 -0.903689 2.39125
HEad  -33.6751 46.3089 -20.314
LeftShoulder1  7.14407 -12.7208 -37.9311
LeftArm  -1.12428 35.79 -34.539
LeftForeArm  164.748 -67.2756 -156.088
LeftHand  -0.308071 -2.81966 4.5838
RightShoulder  4.1663 6.79855 34.5465
RightArm  8.75934 -39.3161 32.5938
RightForeArm  142.282 77.1205 132.219
RightHand  -0.25775 7.98449 -2.60665
LeftUpLeg  -7.87359 -0.783349 6.98863
LeftLeg  15.1971 7.32952 3.05413
LeftFoot  1.89958 1.82868 -15.7729
LeftToes  1.24767e-006 1.47042e-008 1.32732e-009
380
root  6.16706 41.0025 22.5989 8.96191 -71.6054 -1.03186
RightUpLeg  -7.9901 3.48094 -11.4904
RightLeg  15.7499 -2.72627 -1.27038
RightFoot  -6.38458 -0.61903 13.157
RightToes  -2.08645e-008 3.77894e-005 6.81332e-007
Spine  -9.39004 0.162254 0.40364
Spine1  11.2318 -0.540916 1.52453
HEad  -34.1947 46.9671 -21.489
LeftShoulder1  6.95082 -12.5535 -37.2129
LeftArm  -2.01184 37.3603 -33.8582
LeftForeArm  160.607 -70.181 -151.825
LeftHand  -0.283444 -2.99709 4.1536
RightShoulder  4.10491 6.75681 34.117
RightArm  8.75626 -38.6274 33.1624
RightForeArm  136.401 77.7764 127.951
RightHand  -0.088431 8.41872 -1.12044
LeftUpLeg  -7.54287 1.08848 7.93227
LeftLeg  14.9846 6.69883 2.9148
LeftFoot  3.2699 2.2036 -17.2466
LeftToes  1.24767e-006 1.47042e-008 1.32732e-009
381
root  5.93793 40.6686 22.1683 10.6875 -73.2841 -2.46558
RightUpLeg  -10.5668 6.19503 -9.97134
RightLeg  16.4183 -1.64424 -0.916744
RightFoot  -7.34521 -0.455128 11.6463
RightToes  -2.08645e-008 3.77894e-005 6.81332e-007
Spine  -8.07486 0.530321 1.06785
Spine1  10.3226 -0.0485235 1.19858
HEad  -35.1123 47.1518 -22.4634
LeftShoulder1  6.88003 -12.5278 -36.8531
LeftArm  -1.14983 36.1194 -31.0592
LeftForeArm  153.794 -73.4575 -145.068
LeftHand  -0.363029 -2.95404 5.28721
RightShoulder  4.08947 6.78512 33.8583
RightArm  9.25997 -35.7424 33.2135
RightForeArm  126.894 79.0395 118.221
RightHand  -0.330085 7.66907 -3.31466
LeftUpLeg  -8.72126 0.690135 9.25254
LeftLeg  18.1933 7.45698 3.22724
LeftFoot  0.794897 2.01846 -18.9205
LeftToes  1.24767e-006 1.47042e-008 1.32732e-009
382
root  5.84727 39.894 21.7039 12.832 -73.8813 -5.27432
RightUpLeg  -13.2959 7.88489 -7.92729
RightLeg  21.8443 -2.02066 -1.09617
RightFoot  -9.34298 -0.220911 9.19327
RightToes  -2.08645e-008 3.77894e-005 6.81332e-007
Spine  -4.01496 0.523268 2.65957
Spine1  7.70981 0.13541 0.912265
HEad  -36.6376 47.0441 -23.4217
LeftShoulder1  7.08381 -12.803 -37.3597
LeftArm  -0.0682397 33.4518 -26.135
LeftForeArm  149.657 -74.7952 -141.19
LeftHand  -0.403811 -2.57102 6.11146
RightShoulder  4.08846 6.81475 33.7348
RightArm  10.6426 -31.4829 32.8016
RightForeArm  113.737 79.936 105.52
RightHand  -0.508769 6.45206 -5.32316
LeftUpLeg  -10.3682 0.0245002 10.8731
LeftLeg  24.0071 7.83402 4.12853
LeftFoot  -4.32646 1.24615 -19.7406
LeftToes  1.24767e-006 1.47042e-008 1.32732e-009
383
root  5.76117 38.9348 21.273 14.8831 -74.4175 -8.99338
RightUpLeg  -14.6607 8.41607 -5.6072
RightLeg  28.3889 -2.95186 -1.95952
RightFoot  -14.19 0.0502091 5.88757
RightToes  -2.08645e-008 3.77894e-005 6.81332e-007
Spine  -0.194231 0.475557 5.60851
Spine1  7.03005 0.668517 -1.12416
HEad  -39.0012 46.2717 -24.6672
LeftShoulder1  7.43254 -13.1709 -38.449
LeftArm  -0.234559 27.8553 -21.508
LeftForeArm  143.387 -76.3291 -135.355
LeftHand  -0.52039 -2.42951 7.9379
RightShoulder  4.05501 6.80614 33.4447
RightArm  11.0477 -25.6605 33.2916
RightForeArm  92.8072 80.2329 84.7907
RightHand  -0.626478 6.5648 -6.4118
LeftUpLeg  -10.8911 0.699756 12.5899
LeftLeg  29.8091 7.2698 4.82856
LeftFoot  -10.3269 0.237752 -19.7461
LeftToes  1.24767e-006 1.47042e-008 1.32732e-009
384
root  5.57283 38.2931 20.9595 16.0562 -74.8771 -11.3024
RightUpLeg  -14.7252 8.44454 -4.08382
RightLeg  31.7443 -3.7169 -2.71522
RightFoot  -18.537 0.11721 3.77323
RightToes  -2.08645e-008 3.77894e-005 6.81332e-007
Spine  0.333393 0.553861 8.1747
Spine1  9.31862 1.43663 -3.83522
HEad  -40.6032 45.6737 -25.2155
LeftShoulder1  7.65778 -13.3606 -39.2465
LeftArm  -1.8125 21.493 -19.9527
LeftForeArm  133.991 -78.3351 -124.684
LeftHand  -0.668349 -2.2676 10.3397
RightShoulder  4.01463 6.78223 33.1443
RightArm  9.74236 -21.3212 34.3921
RightForeArm  78.307 79.6536 68.1054
RightHand  -0.82243 7.05269 -8.00736
LeftUpLeg  -11.6332 1.86601 14.0303
LeftLeg  34.7521 5.74726 4.63122
LeftFoot  -13.8457 -0.384083 -21.3513
LeftToes  1.24767e-006 1.47042e-008 1.32732e-009
385
root  5.30663 38.3166 20.8575 14.5481 -74.1259 -10.1053
RightUpLeg  -13.5406 8.35003 -3.72873
RightLeg  31.2581 -4.32131 -3.06254
RightFoot  -18.888 0.164591 4.43929
RightToes  -2.08645e-008 3.77894e-005 6.81332e-007
Spine  -0.266072 0.301921 8.43861
Spine1  10.5802 1.31872 -4.36549
HEad  -40.7439 46.3404 -25.4113
LeftShoulder1  7.60931 -13.2833 -39.1701
LeftArm  -3.83673 20.3622 -22.0687
LeftForeArm  137.849 -77.9893 -127.377
LeftHand  -0.680141 -1.75202 11.2317
RightShoulder  3.99033 6.73343 33.0933
RightArm  8.01339 -22.5486 34.5976
RightForeArm  88.5126 80.1644 77.0105
RightHand  -0.822161 6.80888 -8.14261
LeftUpLeg  -13.9466 2.21663 14.6323
LeftLeg  39.2633 4.26257 4.10952
LeftFoot  -10.1475 0.303589 -22.549
LeftToes  1.24767e-006 1.47042e-008 1.32732e-009
